<svg width="24" height="24" viewBox="0 0 24 24" fill="none" xmlns="http://www.w3.org/2000/svg">
<g clip-path="url(#clip0_1791_3822)">
<path d="M14.9995 3.25C13.2795 3.25 11.8695 4.6 11.7695 6.3C12.5995 7.02 13.1395 8.05 13.2195 9.21C13.7295 9.55 14.3395 9.75 14.9995 9.75C16.7895 9.75 18.2495 8.29 18.2495 6.5C18.2495 4.71 16.7895 3.25 14.9995 3.25Z" fill="#1E78F0"/>
<path d="M2.25 13.25V14C2.25 17.72 5.28 20.75 9 20.75C12.72 20.75 15.75 17.72 15.75 14V13.25H2.25Z" fill="#1E78F0"/>
<path d="M13.1709 10.25C13.0309 11.01 12.6909 11.69 12.2109 12.25H16.7509V14C16.7509 15.34 16.4109 16.6 15.8109 17.7C19.1509 17.3 21.7509 14.45 21.7509 11V10.25H13.1709Z" fill="#1E78F0"/>
<path d="M9 12.75C10.7949 12.75 12.25 11.2949 12.25 9.5C12.25 7.70507 10.7949 6.25 9 6.25C7.20507 6.25 5.75 7.70507 5.75 9.5C5.75 11.2949 7.20507 12.75 9 12.75Z" fill="#1E78F0"/>
</g>
<defs>
<clipPath id="clip0_1791_3822">
<rect width="24" height="24" fill="white"/>
</clipPath>
</defs>
</svg>
