<svg width="24" height="24" viewBox="0 0 24 24" fill="none" xmlns="http://www.w3.org/2000/svg">
<g clip-path="url(#clip0_1791_48)">
<path d="M6.99977 17.25H19.7498V2.75H15.9998V9.29C15.9998 9.74 15.4598 9.96 15.1498 9.64L14.3598 8.85C14.1598 8.65 13.8498 8.65 13.6498 8.85L12.8598 9.64C12.5398 9.96 12.0098 9.73 12.0098 9.29V2.75H7.00977C5.48977 2.75 4.25977 3.98 4.25977 5.5V18.5C4.25977 20.02 5.48977 21.25 7.00977 21.25H19.7598V19.75H6.99977C6.30977 19.75 5.74977 19.19 5.74977 18.5C5.74977 17.81 6.30977 17.25 6.99977 17.25Z" fill="#1E78F0"/>
</g>
<defs>
<clipPath id="clip0_1791_48">
<rect width="24" height="24" fill="white"/>
</clipPath>
</defs>
</svg>
