<svg width="24" height="24" viewBox="0 0 24 24" fill="none" xmlns="http://www.w3.org/2000/svg">
<g clip-path="url(#clip0_1791_491)">
<path d="M5 14.75C3.483 14.75 2.25 13.517 2.25 12C2.25 10.483 3.483 9.25 5 9.25C6.517 9.25 7.75 10.483 7.75 12C7.75 13.517 6.517 14.75 5 14.75ZM5 10.75C4.311 10.75 3.75 11.311 3.75 12C3.75 12.689 4.311 13.25 5 13.25C5.689 13.25 6.25 12.689 6.25 12C6.25 11.311 5.689 10.75 5 10.75Z" fill="#D7D7D9"/>
<path d="M12 14.75C10.483 14.75 9.25 13.517 9.25 12C9.25 10.483 10.483 9.25 12 9.25C13.517 9.25 14.75 10.483 14.75 12C14.75 13.517 13.517 14.75 12 14.75ZM12 10.75C11.311 10.75 10.75 11.311 10.75 12C10.75 12.689 11.311 13.25 12 13.25C12.689 13.25 13.25 12.689 13.25 12C13.25 11.311 12.689 10.75 12 10.75Z" fill="#D7D7D9"/>
<path d="M19 14.75C17.483 14.75 16.25 13.517 16.25 12C16.25 10.483 17.483 9.25 19 9.25C20.517 9.25 21.75 10.483 21.75 12C21.75 13.517 20.517 14.75 19 14.75ZM19 10.75C18.311 10.75 17.75 11.311 17.75 12C17.75 12.689 18.311 13.25 19 13.25C19.689 13.25 20.25 12.689 20.25 12C20.25 11.311 19.689 10.75 19 10.75Z" fill="#D7D7D9"/>
</g>
<defs>
<clipPath id="clip0_1791_491">
<rect width="24" height="24" fill="white"/>
</clipPath>
</defs>
</svg>
