<svg width="24" height="24" viewBox="0 0 24 24" fill="none" xmlns="http://www.w3.org/2000/svg">
<g clip-path="url(#clip0_1409_4528)">
<path d="M14.5 2.5H9.5C9.22386 2.5 9 2.72386 9 3V4C9 4.27614 9.22386 4.5 9.5 4.5H14.5C14.7761 4.5 15 4.27614 15 4V3C15 2.72386 14.7761 2.5 14.5 2.5Z" fill="#D7D7D9"/>
<path d="M17.5 3.5H16V4C16 4.83 15.33 5.5 14.5 5.5H9.5C8.67 5.5 8 4.83 8 4V3.5H6.5C5.67 3.5 5 4.17 5 5V20C5 20.83 5.67 21.5 6.5 21.5H17.5C18.33 21.5 19 20.83 19 20V5C19 4.17 18.33 3.5 17.5 3.5ZM8.6 18.5C8.51 18.62 8.38 18.69 8.23 18.7C8.22 18.7 8.21 18.7 8.19 18.7C8.06 18.7 7.93 18.65 7.84 18.55L6.64 17.35L7.35 16.64L8.14 17.43L9.59 15.49L10.39 16.09L8.59 18.49L8.6 18.5ZM8.6 14.35C8.51 14.47 8.38 14.54 8.23 14.55C8.22 14.55 8.21 14.55 8.19 14.55C8.06 14.55 7.93 14.5 7.84 14.4L6.64 13.2L7.35 12.49L8.14 13.28L9.59 11.34L10.39 11.94L8.59 14.34L8.6 14.35ZM8.6 10.2C8.51 10.32 8.38 10.39 8.23 10.4C8.22 10.4 8.21 10.4 8.19 10.4C8.06 10.4 7.93 10.35 7.84 10.25L6.64 9.05L7.35 8.34L8.14 9.13L9.59 7.19L10.39 7.79L8.59 10.19L8.6 10.2ZM17 18H11V17H17V18ZM17 13.85H11V12.85H17V13.85ZM17 9.7H11V8.7H17V9.7Z" fill="#D7D7D9"/>
</g>
<defs>
<clipPath id="clip0_1409_4528">
<rect width="24" height="24" fill="white"/>
</clipPath>
</defs>
</svg>
