<svg width="24" height="24" viewBox="0 0 24 24" fill="none" xmlns="http://www.w3.org/2000/svg">
<g clip-path="url(#clip0_1791_481)">
<path d="M9 12.75C7.21 12.75 5.75 11.29 5.75 9.5C5.75 7.71 7.21 6.25 9 6.25C10.79 6.25 12.25 7.71 12.25 9.5C12.25 11.29 10.79 12.75 9 12.75ZM9 7.75C8.04 7.75 7.25 8.54 7.25 9.5C7.25 10.46 8.04 11.25 9 11.25C9.96 11.25 10.75 10.46 10.75 9.5C10.75 8.54 9.96 7.75 9 7.75Z" fill="#D7D7D9"/>
<path d="M9 20.75C5.28 20.75 2.25 17.72 2.25 14V13.25H15.75V14C15.75 17.72 12.72 20.75 9 20.75ZM3.8 14.75C4.16 17.29 6.36 19.25 9 19.25C11.64 19.25 13.83 17.29 14.2 14.75H3.8Z" fill="#D7D7D9"/>
<path d="M14.9995 3.25C13.2795 3.25 11.8695 4.6 11.7695 6.3C12.5995 7.02 13.1395 8.05 13.2195 9.21C13.7295 9.55 14.3395 9.75 14.9995 9.75C16.7895 9.75 18.2495 8.29 18.2495 6.5C18.2495 4.71 16.7895 3.25 14.9995 3.25ZM14.9995 8.25C14.0395 8.25 13.2495 7.46 13.2495 6.5C13.2495 5.54 14.0395 4.75 14.9995 4.75C15.9595 4.75 16.7495 5.54 16.7495 6.5C16.7495 7.46 15.9595 8.25 14.9995 8.25Z" fill="#D7D7D9"/>
<path d="M13.1698 10.25C13.0698 10.79 12.8698 11.3 12.5898 11.75H20.1998C19.9098 13.8 18.4198 15.44 16.4798 16.02C16.3198 16.61 16.0998 17.17 15.8198 17.7C19.1598 17.3 21.7598 14.45 21.7598 11V10.25H13.1698Z" fill="#D7D7D9"/>
</g>
<defs>
<clipPath id="clip0_1791_481">
<rect width="24" height="24" fill="white"/>
</clipPath>
</defs>
</svg>
