<svg width="88" height="88" viewBox="0 0 88 88" fill="none" xmlns="http://www.w3.org/2000/svg">
<g clip-path="url(#clip0_1404_137177)">
<path d="M44 88C68.3005 88 88 68.3005 88 44C88 19.6995 68.3005 0 44 0C19.6995 0 0 19.6995 0 44C0 68.3005 19.6995 88 44 88Z" fill="#E0ECFF"/>
<path d="M34.6053 39.3486C35.8203 39.3486 36.8053 38.3636 36.8053 37.1486C36.8053 35.9335 35.8203 34.9486 34.6053 34.9486C33.3902 34.9486 32.4053 35.9335 32.4053 37.1486C32.4053 38.3636 33.3902 39.3486 34.6053 39.3486Z" fill="#1E78F0"/>
<path d="M53.4979 39.3486C54.7129 39.3486 55.6978 38.3636 55.6978 37.1486C55.6978 35.9335 54.7129 34.9486 53.4979 34.9486C52.2828 34.9486 51.2979 35.9335 51.2979 37.1486C51.2979 38.3636 52.2828 39.3486 53.4979 39.3486Z" fill="#1E78F0"/>
<path d="M57.4093 45.4948C56.1522 47.0313 54.2664 47.9742 52.1363 47.9742C49.622 47.9742 47.4569 46.6123 46.2696 44.5869L47.7363 43.3996C48.5744 42.7361 48.5744 41.444 47.7363 40.7456L45.0125 38.5456C44.3839 38.0567 43.5109 38.0567 42.8823 38.5456L40.1585 40.7456C39.3204 41.4091 39.3204 42.7012 40.1585 43.3996L41.6252 44.5869C40.4379 46.6123 38.2728 47.9742 35.7585 47.9742C33.6283 47.9742 31.7426 46.9964 30.4855 45.4948C29.9617 44.8663 28.9141 45.2504 28.9141 46.0536C28.9141 52.1298 33.1744 57.0885 38.8664 58.3456C39.6347 60.4758 41.6252 62.0123 43.9998 62.0123C46.3744 62.0123 48.3649 60.4758 49.1331 58.3456C54.7903 57.0885 59.0855 52.0948 59.0855 46.0536C59.0855 45.2155 58.0379 44.8313 57.5141 45.4948H57.4093ZM47.0379 56.4599C47.0379 58.2409 45.641 59.6726 43.9299 59.6726C42.2188 59.6726 40.822 58.2409 40.822 56.4599V49.5107C40.822 49.0917 40.9966 48.7075 41.3109 48.498L43.1617 47.1012V53.4917C43.1617 53.9107 43.5109 54.2599 43.9299 54.2599C44.349 54.2599 44.6982 53.9107 44.6982 53.4917V47.1012L46.5141 48.498C46.8283 48.7425 47.003 49.1266 47.003 49.5107V56.4599H47.0379Z" fill="#1E78F0"/>
</g>
<defs>
<clipPath id="clip0_1404_137177">
<rect width="88" height="88" fill="white"/>
</clipPath>
</defs>
</svg>
