<svg width="64" height="64" viewBox="0 0 64 64" fill="none" xmlns="http://www.w3.org/2000/svg">
<rect width="64" height="64" rx="32" fill="#E0ECFF"/>
<g clip-path="url(#clip0_620_46261)">
<path d="M22.4132 29.4933C21.7599 29.4933 21.1199 29.3333 20.5466 29C19.6932 28.4266 19.1732 27.5866 19.0799 26.64C18.9866 25.6933 19.3199 24.76 19.9866 24.0933L22.8266 20.68C23.4666 19.92 24.3999 19.5333 25.3866 19.4933C26.3866 19.4933 27.3066 19.96 27.9199 20.7466L28.0266 20.9066L28.5732 21.96C30.8266 21.36 33.2399 21.36 35.4932 21.9466L36.0532 20.7333C36.6666 19.96 37.5999 19.4933 38.5866 19.48H38.6266C39.5999 19.48 40.5199 19.9066 41.1466 20.6666L44.0399 24.1333C44.6532 24.7466 44.9866 25.6666 44.8932 26.6133C44.7999 27.56 44.2932 28.4133 43.4932 28.9333C42.4132 29.5333 41.2132 29.6133 40.1466 29.2C39.0666 28.7733 38.2532 27.8933 37.8932 26.8L37.5199 25.6133C37.3466 25.0933 37.6399 24.52 38.1732 24.36C38.7066 24.1866 39.2666 24.48 39.4266 25.0133L39.7999 26.2C39.9732 26.7333 40.3599 27.1466 40.8799 27.3466C41.3999 27.5466 41.9732 27.5066 42.4532 27.24C42.6799 27.08 42.8666 26.7733 42.9066 26.4266C42.9466 26.08 42.8132 25.7333 42.5732 25.4933L39.6132 21.96C39.3599 21.6666 38.9466 21.5066 38.6132 21.4933C38.2666 21.4933 37.9332 21.64 37.6932 21.8933L36.5999 24.4L35.7332 24.1066C33.3599 23.32 30.7466 23.32 28.3599 24.1066L27.5466 24.3733L26.2799 21.9066C26.0399 21.64 25.7066 21.4933 25.3466 21.48C24.9999 21.48 24.5866 21.64 24.3466 21.9466L21.4532 25.4266C21.1466 25.7466 21.0266 26.08 21.0532 26.4266C21.0799 26.7733 21.2799 27.0933 21.5732 27.28C21.9866 27.5066 22.5599 27.5466 23.0799 27.3466C23.5999 27.1466 23.9866 26.72 24.1599 26.2L24.5332 25.0133C24.6932 24.4933 25.2666 24.2 25.7866 24.36C26.3199 24.5333 26.5999 25.0933 26.4399 25.6133L26.0666 26.8C25.7199 27.9066 24.8932 28.7866 23.8132 29.2C23.3599 29.3866 22.8799 29.4666 22.3999 29.4666L22.4132 29.4933Z" fill="#1E78F0"/>
<path d="M29.0003 30.5066C29.7367 30.5066 30.3337 29.9097 30.3337 29.1733C30.3337 28.4369 29.7367 27.84 29.0003 27.84C28.2639 27.84 27.667 28.4369 27.667 29.1733C27.667 29.9097 28.2639 30.5066 29.0003 30.5066Z" fill="#1E78F0"/>
<path d="M35.0003 30.5066C35.7367 30.5066 36.3337 29.9097 36.3337 29.1733C36.3337 28.4369 35.7367 27.84 35.0003 27.84C34.2639 27.84 33.667 28.4369 33.667 29.1733C33.667 29.9097 34.2639 30.5066 35.0003 30.5066Z" fill="#1E78F0"/>
<path d="M31.9997 44.4933C29.773 44.4933 27.5463 44.0533 25.4797 43.1733C21.2263 41.3733 20.333 38.92 20.333 37.1733C20.333 35.0133 21.3197 33.8666 22.1597 33.2933C25.0797 31.2666 30.4663 32.92 31.9997 33.44C33.533 32.9066 38.9197 31.2666 41.8397 33.2933C42.6663 33.8666 43.6663 35.0133 43.6663 37.1733C43.6663 38.92 42.773 41.3733 38.5197 43.1733C36.453 44.0533 34.2263 44.4933 31.9997 44.4933ZM25.933 34.3066C24.9063 34.3066 23.9597 34.48 23.293 34.9333C22.653 35.3866 22.333 36.1066 22.333 37.1733C22.333 38.8266 23.653 40.2266 26.253 41.3333C29.9063 42.88 34.0797 42.88 37.733 41.3333C40.333 40.2266 41.6663 38.8266 41.6663 37.1733C41.6663 36.12 41.3463 35.3866 40.7063 34.9333C38.693 33.5466 33.9997 34.8266 32.3463 35.44L31.9997 35.5733L31.653 35.44C30.5463 35.0266 28.053 34.3066 25.933 34.3066Z" fill="#1E78F0"/>
<path d="M29.333 40.1734C28.973 40.1734 28.613 39.9734 28.4397 39.6134C28.1864 39.12 28.3864 38.52 28.893 38.2667L31.013 37.2134V35.16C31.013 34.6134 31.4664 34.16 32.013 34.16C32.5597 34.16 33.013 34.6134 33.013 35.16V38.44L29.7997 40.0534C29.653 40.12 29.5064 40.16 29.3597 40.16L29.333 40.1734Z" fill="#1E78F0"/>
<path d="M34.667 40.1733C34.5203 40.1733 34.3603 40.1333 34.227 40.0667L31.0137 38.4533V35.1733C31.0137 34.6267 31.467 34.1733 32.0137 34.1733C32.5603 34.1733 33.0137 34.6267 33.0137 35.1733V37.2267L35.1337 38.28C35.627 38.5333 35.827 39.1333 35.587 39.6267C35.4137 39.9733 35.0537 40.1867 34.6937 40.1867L34.667 40.1733Z" fill="#1E78F0"/>
<path d="M35.3337 33C35.3337 34.84 33.8403 36.3333 32.0003 36.3333C30.1603 36.3333 28.667 34.84 28.667 33" fill="#1E78F0"/>
</g>
<defs>
<clipPath id="clip0_620_46261">
<rect width="32" height="32" fill="white" transform="translate(16 16)"/>
</clipPath>
</defs>
</svg>
