<svg width="14" height="14" viewBox="0 0 14 14" fill="none" xmlns="http://www.w3.org/2000/svg">
<path d="M6.9338 0.75C10.3838 0.75 13.1838 3.55 13.1838 7C13.1838 8.575 12.6005 10.0083 11.6338 11.1083L13.0171 12.0333C13.5671 12.4 13.3088 13.2583 12.6505 13.2583H6.9338C3.4838 13.2583 0.683804 10.4583 0.683804 7.00833C0.683804 3.55833 3.4838 0.758334 6.9338 0.758334V0.75ZM7.00047 9.70833C7.4588 9.70833 7.8338 9.33333 7.8338 8.875C7.8338 8.41667 7.4588 8.04167 7.00047 8.04167C6.54214 8.04167 6.16714 8.41667 6.16714 8.875C6.16714 9.33333 6.54214 9.70833 7.00047 9.70833ZM6.16714 6.79167C6.16714 7.25 6.54214 7.625 7.00047 7.625C7.4588 7.625 7.8338 7.25 7.8338 6.79167V5.125C7.8338 4.66667 7.4588 4.29167 7.00047 4.29167C6.54214 4.29167 6.16714 4.66667 6.16714 5.125V6.79167Z" fill="#ED6060"/>
</svg>
