<svg width="24" height="24" viewBox="0 0 24 24" fill="none" xmlns="http://www.w3.org/2000/svg">
<g clip-path="url(#clip0_272_4465)">
<path d="M3 12C3 7.04 7.04 3 12 3V5C8.14 5 5 8.14 5 12C5 15.86 8.14 19 12 19C15.86 19 19 15.86 19 12C19 10.16 18.26 8.42 17 7.12V10H15V5C15 4.45 15.45 4 16 4H21V6H18.7C20.16 7.63 21 9.76 21 12C21 16.96 16.96 21 12 21C7.04 21 3 16.96 3 12Z" fill="#333333"/>
</g>
<defs>
<clipPath id="clip0_272_4465">
<rect width="24" height="24" fill="white"/>
</clipPath>
</defs>
</svg>
