<svg width="24" height="24" viewBox="0 0 24 24" fill="none" xmlns="http://www.w3.org/2000/svg">
<path d="M21 5.25H16.75V5C16.75 3.48 15.52 2.25 14 2.25H10C8.48 2.25 7.25 3.48 7.25 5V5.25H3V6.75H5.25V18C5.25 19.52 6.48 20.75 8 20.75H16C17.52 20.75 18.75 19.52 18.75 18V6.75H21V5.25ZM8.75 5C8.75 4.31 9.31 3.75 10 3.75H14C14.69 3.75 15.25 4.31 15.25 5V5.25H8.75V5ZM17.25 18C17.25 18.69 16.69 19.25 16 19.25H8C7.31 19.25 6.75 18.69 6.75 18V6.75H17.25V18Z" fill="#333333"/>
<path d="M10.75 9H9.25V17H10.75V9Z" fill="#333333"/>
<path d="M14.75 9H13.25V17H14.75V9Z" fill="#333333"/>
</svg>
