<svg width="24" height="24" viewBox="0 0 24 24" fill="none" xmlns="http://www.w3.org/2000/svg">
<g clip-path="url(#clip0_22_6023)">
<path d="M16.9996 20.45H6.99961C4.84961 20.45 3.09961 18.7 3.09961 16.55V11.55H4.90061V16.55C4.90061 17.708 5.84161 18.65 7.00061 18.65H17.0006C18.1586 18.65 19.1006 17.709 19.1006 16.55V11.55H20.9016V16.55C20.9016 18.7 19.1516 20.45 17.0016 20.45H16.9996Z" fill="#1E78F0"/>
<path d="M11.9978 3.54903C12.2318 3.54903 12.4618 3.64103 12.6348 3.81303L16.6348 7.81303L15.3618 9.08603L12.8988 6.62203L12.8988 15.449L11.0978 15.449L11.0978 4.44903C11.0978 4.08503 11.3178 3.75703 11.6538 3.61803C11.7648 3.57103 11.8828 3.54903 11.9988 3.54903L11.9978 3.54903Z" fill="#1E78F0"/>
<path d="M11.9994 3.54903C12.1154 3.54903 12.2324 3.57103 12.3444 3.61803C12.6804 3.75703 12.9004 4.08503 12.9004 4.44903L12.9004 15.449L11.0994 15.449L11.0994 6.62203L8.63639 9.08603L7.36339 7.81303L11.3634 3.81303C11.5364 3.64103 11.7654 3.54903 12.0004 3.54903L11.9994 3.54903Z" fill="#1E78F0"/>
</g>
<defs>
<clipPath id="clip0_22_6023">
<rect width="24" height="24" fill="white"/>
</clipPath>
</defs>
</svg>
