<svg width="32" height="32" viewBox="0 0 32 32" fill="none" xmlns="http://www.w3.org/2000/svg">
<g clip-path="url(#clip0_564_48859)">
<path d="M26.3333 27.6667H3V26.6667C3 20.2333 8.23333 15 14.6667 15C21.1 15 26.3333 20.2333 26.3333 26.6667V27.6667ZM5.05067 25.6667H24.2827C23.78 20.8053 19.6587 17 14.6667 17C9.67467 17 5.55333 20.8053 5.05067 25.6667Z" fill="#333333"/>
<path d="M14.668 13C11.9106 13 9.66797 10.756 9.66797 8C9.66797 5.244 11.9106 3 14.668 3C17.4253 3 19.668 5.244 19.668 8C19.668 10.756 17.424 13 14.668 13ZM14.668 5C13.0133 5 11.668 6.34667 11.668 8C11.668 9.65333 13.0133 11 14.668 11C16.3226 11 17.668 9.65333 17.668 8C17.668 6.34667 16.3213 5 14.668 5Z" fill="#333333"/>
<path d="M22 28.6667C25.3137 28.6667 28 25.9804 28 22.6667C28 19.3529 25.3137 16.6667 22 16.6667C18.6863 16.6667 16 19.3529 16 22.6667C16 25.9804 18.6863 28.6667 22 28.6667Z" fill="white"/>
<path d="M22 29.6667C18.14 29.6667 15 26.5267 15 22.6667C15 18.8067 18.14 15.6667 22 15.6667C25.86 15.6667 29 18.8067 29 22.6667C29 26.5267 25.86 29.6667 22 29.6667ZM22 17.6667C19.244 17.6667 17 19.9107 17 22.6667C17 25.4227 19.244 27.6667 22 27.6667C24.756 27.6667 27 25.4227 27 22.6667C27 19.9107 24.756 17.6667 22 17.6667Z" fill="#333333"/>
<path d="M25.3346 21.6667H18.668V23.6667H25.3346V21.6667Z" fill="#333333"/>
<path d="M23 19.3333H21V26H23V19.3333Z" fill="#333333"/>
</g>
<defs>
<clipPath id="clip0_564_48859">
<rect width="32" height="32" fill="white"/>
</clipPath>
</defs>
</svg>
