<svg width="24" height="24" viewBox="0 0 24 24" fill="none" xmlns="http://www.w3.org/2000/svg">
<g clip-path="url(#clip0_2479_45281)">
<path d="M14.75 21H3.75C3.2 21 2.75 20.55 2.75 20V4C2.75 3.45 3.2 3 3.75 3H14.75C15.3 3 15.75 3.45 15.75 4V7H13.75V5H4.75V19H13.75V17H15.75V20C15.75 20.55 15.3 21 14.75 21Z" fill="#0C486C"/>
<path d="M19.25 11H8.25V13H19.25V11Z" fill="#0C486C"/>
<path d="M16.9598 16.71L15.5498 15.3L18.8398 12.01L15.5498 8.72L16.9598 7.31L20.9598 11.31C21.3498 11.7 21.3498 12.33 20.9598 12.72L16.9598 16.72V16.71Z" fill="#0C486C"/>
</g>
<defs>
<clipPath id="clip0_2479_45281">
<rect width="24" height="24" fill="white"/>
</clipPath>
</defs>
</svg>
