<svg width="20" height="20" viewBox="0 0 20 20" fill="none" xmlns="http://www.w3.org/2000/svg">
<rect x="0.5" y="0.5" width="19" height="19" rx="3.5" stroke="#F1F1F2"/>
<g clip-path="url(#clip0_2925_22495)">
<path d="M12.875 7.125V6H12.125V7.125H10.375V6H9.625V7.125H7.875V6H7.125V7.125H5.625V13C5.625 13.76 6.24 14.375 7 14.375H13C13.76 14.375 14.375 13.76 14.375 13V7.125H12.875ZM13.625 13C13.625 13.345 13.345 13.625 13 13.625H7C6.655 13.625 6.375 13.345 6.375 13V10.375H13.625V13ZM6.375 9.625V7.875H7.125V8.5H7.875V7.875H9.625V8.5H10.375V7.875H12.125V8.5H12.875V7.875H13.625V9.625H6.375Z" fill="#919191"/>
</g>
<defs>
<clipPath id="clip0_2925_22495">
<rect width="12" height="12" fill="white" transform="translate(4 4)"/>
</clipPath>
</defs>
</svg>
