<svg width="24" height="24" viewBox="0 0 24 24" fill="none" xmlns="http://www.w3.org/2000/svg">
<g clip-path="url(#clip0_2479_45262)">
<path d="M14.75 21H3.75C3.2 21 2.75 20.55 2.75 20V4C2.75 3.45 3.2 3 3.75 3H14.75C15.3 3 15.75 3.45 15.75 4V7H13.75V5H4.75V19H13.75V17H15.75V20C15.75 20.55 15.3 21 14.75 21Z" fill="#3B8787"/>
<path d="M21.25 11H9.25V13H21.25V11Z" fill="#3B8787"/>
<path d="M11.5396 16.71L7.53957 12.71C7.14957 12.32 7.14957 11.69 7.53957 11.3L11.5396 7.29999L12.9496 8.70999L9.65957 12L12.9496 15.29L11.5396 16.7V16.71Z" fill="#3B8787"/>
</g>
<defs>
<clipPath id="clip0_2479_45262">
<rect width="24" height="24" fill="white"/>
</clipPath>
</defs>
</svg>
