<svg width="24" height="24" viewBox="0 0 24 24" fill="none" xmlns="http://www.w3.org/2000/svg">
<g clip-path="url(#clip0_1404_212099)">
<path d="M12 7.875C10.7593 7.875 9.75 6.86523 9.75 5.625C9.75 4.38477 10.7593 3.375 12 3.375C13.2402 3.375 14.25 4.38477 14.25 5.625C14.25 6.86523 13.2402 7.875 12 7.875ZM12 4.875C11.5864 4.875 11.25 5.21191 11.25 5.625C11.25 6.03809 11.5864 6.375 12 6.375C12.4136 6.375 12.75 6.03809 12.75 5.625C12.75 5.21191 12.4136 4.875 12 4.875Z" fill="#1E78F0"/>
<path d="M10.2599 5.73769L3.86182 10.2633L4.72803 11.4879L11.1261 6.9623L10.2599 5.73769Z" fill="#1E78F0"/>
<path d="M13.7393 5.73844L12.8735 6.96286L19.2723 11.4872L20.138 10.2627L13.7393 5.73844Z" fill="#1E78F0"/>
<path d="M22.25 20.625H1.75V10.125H22.25V20.625ZM3.25 19.125H20.75V11.625H3.25V19.125Z" fill="#1E78F0"/>
<path d="M10.5303 12.8447L9.46973 13.9053L13.4697 17.9053L14.5303 16.8447L10.5303 12.8447Z" fill="#1E78F0"/>
<path d="M13.4697 12.8447L9.46973 16.8447L10.5303 17.9053L14.5303 13.9053L13.4697 12.8447Z" fill="#1E78F0"/>
</g>
<defs>
<clipPath id="clip0_1404_212099">
<rect width="24" height="24" fill="white"/>
</clipPath>
</defs>
</svg>
