<svg width="32" height="32" viewBox="0 0 32 32" fill="none" xmlns="http://www.w3.org/2000/svg">
<path d="M28.6663 27.6839L23.3756 22.3931C24.9473 20.448 25.8965 17.9738 25.8965 15.2817C25.8965 9.05733 20.8391 4 14.6147 4C8.39034 4 3.33301 9.05733 3.33301 15.2817C3.33301 21.5061 8.39034 26.5635 14.6147 26.5635C17.3068 26.5635 19.781 25.6143 21.7261 24.0426L27.0169 29.3333L28.6663 27.6839ZM5.66716 15.2817C5.66716 10.3489 9.6819 6.33415 14.6147 6.33415C19.5476 6.33415 23.5623 10.3489 23.5623 15.2817C23.5623 20.2146 19.5476 24.2293 14.6147 24.2293C9.6819 24.2293 5.66716 20.2146 5.66716 15.2817Z" fill="#333333"/>
</svg>
