<svg width="16" height="16" viewBox="0 0 16 16" fill="none" xmlns="http://www.w3.org/2000/svg">
<path d="M13.7468 10.4198L12.0001 8.6731C11.5001 8.1731 10.6268 8.1731 10.1268 8.6731L8.9601 9.83977C8.83343 9.96643 8.62677 9.96643 8.5001 9.83977L6.16677 7.50643C6.10677 7.44643 6.07343 7.36643 6.07343 7.27977C6.07343 7.1931 6.10677 7.1131 6.16677 7.0531L7.33343 5.88643C7.58677 5.6331 7.7201 5.30643 7.7201 4.94643C7.7201 4.58643 7.5801 4.25977 7.33343 4.00643L5.58677 2.25977C5.08677 1.75977 4.21343 1.75977 3.71343 2.25977L3.02677 2.94643C2.04677 3.92643 1.67343 5.34643 2.05343 6.65977C2.5001 8.20643 3.45343 9.7131 4.8801 11.1331C6.30677 12.5531 7.81343 13.5131 9.35343 13.9598C9.69343 14.0598 10.0401 14.1064 10.3801 14.1064C11.3668 14.1064 12.3334 13.7131 13.0601 12.9864L13.7468 12.2998C14.0001 12.0464 14.1334 11.7198 14.1334 11.3598C14.1334 10.9998 13.9934 10.6731 13.7468 10.4198Z" fill="#919191"/>
</svg>
