<svg width="32" height="32" viewBox="0 0 32 32" fill="none" xmlns="http://www.w3.org/2000/svg">
<g clip-path="url(#clip0_1282_28284)">
<path d="M22.0003 6.33334V3.33334H20.0003V6.33334H15.3337V3.33334H13.3337V6.33334H8.66699V3.33334H6.66699V6.33334H2.66699V22C2.66699 24.0227 4.31099 25.6667 6.33366 25.6667H22.3337C24.3563 25.6667 26.0003 24.0227 26.0003 22V6.33334H22.0003ZM24.0003 22C24.0003 22.9187 23.2523 23.6667 22.3337 23.6667H6.33366C5.41499 23.6667 4.66699 22.9187 4.66699 22V15H24.0003V22ZM4.66699 13V8.33334H6.66699V10H8.66699V8.33334H13.3337V10H15.3337V8.33334H20.0003V10H22.0003V8.33334H24.0003V13H4.66699Z" fill="#333333"/>
<path d="M23.334 30C26.6477 30 29.334 27.3137 29.334 24C29.334 20.6863 26.6477 18 23.334 18C20.0203 18 17.334 20.6863 17.334 24C17.334 27.3137 20.0203 30 23.334 30Z" fill="#FAFAFB"/>
<path d="M23.334 31C19.474 31 16.334 27.86 16.334 24C16.334 20.14 19.474 17 23.334 17C27.194 17 30.334 20.14 30.334 24C30.334 27.86 27.194 31 23.334 31ZM23.334 19C20.578 19 18.334 21.244 18.334 24C18.334 26.756 20.578 29 23.334 29C26.09 29 28.334 26.756 28.334 24C28.334 21.244 26.09 19 23.334 19Z" fill="#333333"/>
<path d="M26.6667 23H20V25H26.6667V23Z" fill="#333333"/>
<path d="M24.334 20.6667H22.334V27.3333H24.334V20.6667Z" fill="#333333"/>
</g>
<defs>
<clipPath id="clip0_1282_28284">
<rect width="32" height="32" fill="white"/>
</clipPath>
</defs>
</svg>
