<svg width="36" height="36" viewBox="0 0 36 36" fill="none" xmlns="http://www.w3.org/2000/svg">
<g clip-path="url(#clip0_620_46276)">
<path d="M36 0H0V36H36V0Z" fill="#1E78EB"/>
<path d="M20.6554 17.4823C20.9575 17.4823 21.2024 17.0987 21.2024 16.6256C21.2024 16.1525 20.9575 15.7689 20.6554 15.7689C20.3533 15.7689 20.1084 16.1525 20.1084 16.6256C20.1084 17.0987 20.3533 17.4823 20.6554 17.4823Z" fill="white"/>
<path d="M26.8649 19.8809C26.0759 19.8809 25.4656 19.6256 25.0506 19.1219C24.2339 18.1309 24.5549 16.5553 24.5689 16.4889C24.6156 16.2679 24.8152 16.1133 25.0402 16.1213C26.1756 16.1639 26.9549 16.5206 27.3556 17.1816C27.9852 18.2193 27.3636 19.5589 27.3366 19.6153C27.2609 19.7749 27.1012 19.8776 26.9249 19.8806C26.9046 19.8806 26.8846 19.8809 26.8646 19.8809H26.8649ZM25.4279 17.0839C25.4026 17.5253 25.4479 18.1476 25.7679 18.5339C25.9586 18.7639 26.2329 18.8979 26.6016 18.9393C26.7092 18.5829 26.7932 18.0403 26.5609 17.6603C26.3742 17.3549 25.9939 17.1619 25.4279 17.0839Z" fill="white"/>
<path d="M6.85633 27.4323C6.21567 27.4323 5.51667 27.3823 4.73633 27.288C4.495 27.259 4.317 27.0483 4.32867 26.8056C4.34 26.5626 4.537 26.37 4.78 26.3636C5.88333 26.3346 6.71233 25.9953 7.244 25.3546C8.06833 24.362 7.997 22.912 7.954 22.479C6.71233 21.044 6.057 19.391 6.057 17.6896C6.057 12.6596 11.8027 8.56763 18.865 8.56763C25.9273 8.56763 31.673 12.66 31.673 17.6896C31.673 22.2873 26.852 26.179 20.459 26.742C19.351 26.84 18.3497 26.0513 18.1787 24.9473L18.1713 24.8996C18.0757 24.281 18.2563 23.6553 18.6673 23.1836C19.0827 22.707 19.683 22.4373 20.3207 22.4486C25.84 22.5383 26.7443 19.8736 26.7923 18.28C26.8107 17.6683 26.366 17.1513 25.7577 17.0766L23.0813 16.749C22.9527 16.7333 22.8363 16.6643 22.7607 16.559L22.7473 16.5406C22.7183 16.5003 22.696 16.4553 22.6813 16.4076C22.0693 14.4356 19.9873 13.213 17.5013 13.3663C14.8633 13.5283 13.201 15.2573 12.6937 18.366C12.5733 19.1026 12.426 19.7486 12.255 20.2856C12.1907 20.4883 12.2987 20.6276 12.348 20.6783C12.397 20.7286 12.533 20.8393 12.7353 20.78C14.3507 20.3086 16.445 19.34 17.2467 17.402C17.3447 17.1653 17.616 17.0526 17.8527 17.1506C18.0893 17.2486 18.202 17.52 18.104 17.757C17.3857 19.4933 15.846 20.5496 14.353 21.188C14.4277 21.9473 14.329 23.6096 12.4853 25.2236C10.7017 26.7856 9.16034 27.4323 6.857 27.4326L6.85633 27.4323ZM8.731 21.958C8.79567 22.0253 8.84 22.1113 8.855 22.2066C8.86967 22.2976 9.19734 24.455 7.95767 25.9476C7.78567 26.155 7.593 26.3386 7.38 26.498C9.16367 26.4116 10.388 25.826 11.8733 24.5253C13.2253 23.3416 13.4457 22.174 13.4437 21.531C13.291 21.5816 13.141 21.628 12.9947 21.671C12.5267 21.8076 12.0243 21.6756 11.6837 21.3266C11.3423 20.977 11.2223 20.4703 11.3703 20.0046C11.5277 19.5106 11.6643 18.909 11.7773 18.2166C12.3543 14.681 14.3667 12.6293 17.444 12.4403C20.2543 12.2683 22.6373 13.6336 23.4747 15.8626L25.87 16.156C26.9573 16.289 27.7523 17.2143 27.7193 18.3083C27.6723 19.8663 26.8543 23.4763 20.3057 23.377C19.943 23.3643 19.602 23.523 19.3667 23.7933C19.1357 24.0586 19.0343 24.41 19.088 24.758L19.0953 24.8056C19.1917 25.4283 19.7547 25.8713 20.3773 25.818C26.2877 25.2973 30.7447 21.8033 30.7447 17.69C30.7447 13.1716 25.4153 9.49563 18.8647 9.49563C12.314 9.49563 6.98467 13.1716 6.98467 17.69C6.98467 19.198 7.58834 20.6736 8.73067 21.958H8.731Z" fill="white"/>
</g>
<defs>
<clipPath id="clip0_620_46276">
<rect width="36" height="36" rx="8" fill="white"/>
</clipPath>
</defs>
</svg>
