<svg width="134" height="28" viewBox="0 0 134 28" fill="none" xmlns="http://www.w3.org/2000/svg">
<g clip-path="url(#clip0_90_4397)">
<path d="M64.6349 27.9999H58.8716C56.2978 27.9999 54.2029 25.9091 54.2029 23.3403C54.2029 20.7716 56.2978 18.6808 58.8716 18.6808H62.9333C63.2582 18.6808 63.5233 18.4162 63.5233 18.0919C63.5233 17.7676 63.2582 17.5031 62.9333 17.5031H56.7767C55.648 17.5031 54.7416 16.59 54.7416 15.472C54.7416 14.3541 55.6565 13.4409 56.7767 13.4409H62.9333C65.5071 13.4409 67.602 15.5317 67.602 18.1005C67.602 20.6692 65.5071 22.76 62.9333 22.76H58.8716C58.5467 22.76 58.2816 23.0246 58.2816 23.3489C58.2816 23.6732 58.5467 23.9377 58.8716 23.9377H64.6349C65.7636 23.9377 66.67 24.8509 66.67 25.9688C66.67 27.0868 65.755 27.9999 64.6349 27.9999Z" fill="#1E78F0"/>
<path d="M9.79853 15.1818H6.34399C2.84671 15.1818 0.00783171 12.4595 0.00783171 9.11417V6.92947C-0.000719117 3.57561 2.84671 0.853271 6.33544 0.853271H9.78998C11.0384 0.853271 12.0559 1.86882 12.0559 3.11478C12.0559 4.36074 11.0384 5.37628 9.78998 5.37628H6.33544C5.335 5.37628 4.52267 6.07607 4.52267 6.92947V9.11417C4.52267 9.96757 5.335 10.6674 6.33544 10.6674H9.78998C11.0384 10.6674 12.0559 11.6829 12.0559 12.9289C12.0559 14.1748 11.0384 15.1904 9.78998 15.1904L9.79853 15.1818Z" fill="#1E78F0"/>
<path d="M44.5316 15.5062C43.2832 15.5062 42.2656 14.4906 42.2656 13.2447V2.78201C42.2656 1.53605 43.2832 0.520508 44.5316 0.520508C45.78 0.520508 46.7976 1.53605 46.7976 2.78201V13.2532C46.7976 14.4992 45.78 15.5147 44.5316 15.5147V15.5062Z" fill="#1E78F0"/>
<path d="M18.4102 5.76037H18.3503V2.78201C18.3503 1.53605 17.3327 0.520508 16.0843 0.520508C14.8359 0.520508 13.8184 1.53605 13.8184 2.78201V13.2532C13.8184 14.4992 14.8359 15.5147 16.0843 15.5147C17.3327 15.5147 18.3503 14.4992 18.3503 13.2532V10.2749H18.4102C19.6586 10.2749 20.6761 9.25931 20.6761 8.01335C20.6761 6.76738 19.6586 5.75184 18.4102 5.75184V5.76037Z" fill="#1E78F0"/>
<path d="M66.7394 0.452148C65.491 0.452148 64.4735 1.46769 64.4735 2.71365V4.12176H64.1742C62.9258 4.12176 61.9082 5.13731 61.9082 6.38327C61.9082 7.62923 62.9258 8.64477 64.1742 8.64477H64.4735V10.0529C64.4735 11.2988 65.491 12.3144 66.7394 12.3144C67.9878 12.3144 69.0054 11.2988 69.0054 10.0529V2.71365C69.0054 1.46769 67.9878 0.452148 66.7394 0.452148Z" fill="#1E78F0"/>
<path d="M54.8959 12.2377C51.6551 12.2377 49.0215 9.60919 49.0215 6.37481C49.0215 3.14043 51.6551 0.511963 54.8959 0.511963C58.1367 0.511963 60.7703 3.14043 60.7703 6.37481C60.7703 9.60919 58.1367 12.2377 54.8959 12.2377ZM54.8959 5.03497C54.152 5.03497 53.5534 5.64089 53.5534 6.37481C53.5534 7.10873 54.1605 7.71464 54.8959 7.71464C55.6313 7.71464 56.2384 7.10873 56.2384 6.37481C56.2384 5.64089 55.6313 5.03497 54.8959 5.03497Z" fill="#1E78F0"/>
<path d="M86.8834 12.1949H81.0688V11.5122H82.8132C83.9419 11.5122 84.8483 10.5991 84.8483 9.48114C84.8483 8.36319 83.9333 7.45005 82.8132 7.45005H78.3667C77.6143 7.45005 77.0071 6.84414 77.0071 6.09315V5.52137C77.0071 4.77038 77.6143 4.16447 78.3667 4.16447H82.8132C83.9419 4.16447 84.8483 3.25133 84.8483 2.13338C84.8483 1.01543 83.9333 0.102295 82.8132 0.102295H78.3667C75.3739 0.102295 72.937 2.53448 72.937 5.52137V6.09315C72.937 8.68748 74.7754 10.8722 77.2209 11.3928V12.1949H71.4064C70.3461 12.1949 69.4824 13.0569 69.4824 14.1151C69.4824 15.1733 70.3461 16.0352 71.4064 16.0352H86.8834C87.9437 16.0352 88.8073 15.1733 88.8073 14.1151C88.8073 13.0569 87.9437 12.1949 86.8834 12.1949Z" fill="#1E78F0"/>
<path d="M83.874 28C82.7453 28 81.8389 27.0868 81.8389 25.9689V22.359C81.8389 21.608 81.2318 21.0021 80.4793 21.0021H74.9726C73.8439 21.0021 72.9375 20.089 72.9375 18.971C72.9375 17.8531 73.8524 16.9399 74.9726 16.9399H80.4793C83.4721 16.9399 85.9091 19.3721 85.9091 22.359V25.9689C85.9091 27.0954 84.9942 28 83.874 28Z" fill="#1E78F0"/>
<path d="M33.279 7.36472C33.4871 7.36472 33.6558 7.10491 33.6558 6.78441C33.6558 6.46392 33.4871 6.2041 33.279 6.2041C33.071 6.2041 32.9023 6.46392 32.9023 6.78441C32.9023 7.10491 33.071 7.36472 33.279 7.36472Z" fill="#1E78F0"/>
<path d="M32.0549 1.30565C27.2408 1.30565 23.3245 4.08773 23.3245 7.50986C23.3245 8.67048 23.7692 9.78843 24.6157 10.7698C24.6414 11.0685 24.6927 12.0499 24.1283 12.7241C23.7692 13.1594 23.2048 13.3898 22.4524 13.4068C22.2899 13.4068 22.1531 13.5434 22.1445 13.7055C22.1445 13.8677 22.2557 14.0128 22.4267 14.0298C22.9569 14.0981 23.4357 14.1237 23.8718 14.1237C25.4452 14.1237 26.4884 13.6799 27.7111 12.6217C28.9681 11.5208 29.0365 10.3943 28.9852 9.87377C30.0027 9.43854 31.0545 8.72168 31.5419 7.54399C31.6103 7.38185 31.5333 7.1941 31.3709 7.13436C31.2084 7.06609 31.0203 7.1429 30.9604 7.30504C30.8322 7.60373 30.6612 7.87682 30.4559 8.10724L29.6094 8.83263C29.0536 9.19959 28.4294 9.43854 27.8821 9.60068C27.7453 9.64335 27.6513 9.56655 27.6171 9.53241C27.5829 9.49828 27.5059 9.4044 27.5572 9.26786C27.6769 8.9009 27.771 8.46566 27.8565 7.96216C28.1985 5.84573 29.3358 4.66804 31.1314 4.5571C32.8245 4.45469 34.244 5.28249 34.6629 6.62232C34.6715 6.65646 34.6886 6.68206 34.7057 6.7162H34.7142C34.7655 6.80154 34.8425 6.84421 34.9366 6.86128L35.9114 6.98075C35.8772 7.35625 35.8943 8.01336 36.279 8.4742C36.5099 8.75582 36.8263 8.91797 37.2282 8.96917C36.8092 9.88231 35.7232 10.7784 33.0554 10.7357C32.6193 10.7357 32.2089 10.9149 31.9267 11.2392C31.6445 11.5635 31.5248 11.9817 31.5846 12.4084V12.4425C31.7044 13.1935 32.3884 13.7311 33.1409 13.6629C37.5018 13.2788 40.7853 10.6333 40.7853 7.50132C40.7853 4.0792 36.8691 1.29712 32.0549 1.29712V1.30565ZM36.7579 8.08164C36.5356 7.81708 36.5099 7.39892 36.527 7.09169C36.9118 7.1429 37.1683 7.27944 37.2966 7.48426C37.4591 7.74028 37.3992 8.11577 37.3222 8.35472C37.0743 8.32912 36.8862 8.23525 36.7579 8.08164Z" fill="#1E78F0"/>
<path d="M64.6349 27.9999H58.8716C56.2978 27.9999 54.2029 25.9091 54.2029 23.3403C54.2029 20.7716 56.2978 18.6808 58.8716 18.6808H62.9333C63.2582 18.6808 63.5233 18.4162 63.5233 18.0919C63.5233 17.7676 63.2582 17.5031 62.9333 17.5031H56.7767C55.648 17.5031 54.7416 16.59 54.7416 15.472C54.7416 14.3541 55.6565 13.4409 56.7767 13.4409H62.9333C65.5071 13.4409 67.602 15.5317 67.602 18.1005C67.602 20.6692 65.5071 22.76 62.9333 22.76H58.8716C58.5467 22.76 58.2816 23.0246 58.2816 23.3489C58.2816 23.6732 58.5467 23.9377 58.8716 23.9377H64.6349C65.7636 23.9377 66.67 24.8509 66.67 25.9688C66.67 27.0868 65.755 27.9999 64.6349 27.9999Z" fill="#1E78F0"/>
<path d="M9.79853 15.1818H6.34399C2.84671 15.1818 0.00783171 12.4595 0.00783171 9.11417V6.92947C-0.000719117 3.57561 2.84671 0.853271 6.33544 0.853271H9.78998C11.0384 0.853271 12.0559 1.86882 12.0559 3.11478C12.0559 4.36074 11.0384 5.37628 9.78998 5.37628H6.33544C5.335 5.37628 4.52267 6.07607 4.52267 6.92947V9.11417C4.52267 9.96757 5.335 10.6674 6.33544 10.6674H9.78998C11.0384 10.6674 12.0559 11.6829 12.0559 12.9289C12.0559 14.1748 11.0384 15.1904 9.78998 15.1904L9.79853 15.1818Z" fill="#1E78F0"/>
<path d="M44.5316 15.5062C43.2832 15.5062 42.2656 14.4906 42.2656 13.2447V2.78201C42.2656 1.53605 43.2832 0.520508 44.5316 0.520508C45.78 0.520508 46.7976 1.53605 46.7976 2.78201V13.2532C46.7976 14.4992 45.78 15.5147 44.5316 15.5147V15.5062Z" fill="#1E78F0"/>
<path d="M18.4102 5.76037H18.3503V2.78201C18.3503 1.53605 17.3327 0.520508 16.0843 0.520508C14.8359 0.520508 13.8184 1.53605 13.8184 2.78201V13.2532C13.8184 14.4992 14.8359 15.5147 16.0843 15.5147C17.3327 15.5147 18.3503 14.4992 18.3503 13.2532V10.2749H18.4102C19.6586 10.2749 20.6761 9.25931 20.6761 8.01335C20.6761 6.76738 19.6586 5.75184 18.4102 5.75184V5.76037Z" fill="#1E78F0"/>
<path d="M66.7394 0.452148C65.491 0.452148 64.4735 1.46769 64.4735 2.71365V4.12176H64.1742C62.9258 4.12176 61.9082 5.13731 61.9082 6.38327C61.9082 7.62923 62.9258 8.64477 64.1742 8.64477H64.4735V10.0529C64.4735 11.2988 65.491 12.3144 66.7394 12.3144C67.9878 12.3144 69.0054 11.2988 69.0054 10.0529V2.71365C69.0054 1.46769 67.9878 0.452148 66.7394 0.452148Z" fill="#1E78F0"/>
<path d="M54.8959 12.2377C51.6551 12.2377 49.0215 9.60919 49.0215 6.37481C49.0215 3.14043 51.6551 0.511963 54.8959 0.511963C58.1367 0.511963 60.7703 3.14043 60.7703 6.37481C60.7703 9.60919 58.1367 12.2377 54.8959 12.2377ZM54.8959 5.03497C54.152 5.03497 53.5534 5.64089 53.5534 6.37481C53.5534 7.10873 54.1605 7.71464 54.8959 7.71464C55.6313 7.71464 56.2384 7.10873 56.2384 6.37481C56.2384 5.64089 55.6313 5.03497 54.8959 5.03497Z" fill="#1E78F0"/>
<path d="M86.8834 12.1949H81.0688V11.5122H82.8132C83.9419 11.5122 84.8483 10.5991 84.8483 9.48114C84.8483 8.36319 83.9333 7.45005 82.8132 7.45005H78.3667C77.6143 7.45005 77.0071 6.84414 77.0071 6.09315V5.52137C77.0071 4.77038 77.6143 4.16447 78.3667 4.16447H82.8132C83.9419 4.16447 84.8483 3.25133 84.8483 2.13338C84.8483 1.01543 83.9333 0.102295 82.8132 0.102295H78.3667C75.3739 0.102295 72.937 2.53448 72.937 5.52137V6.09315C72.937 8.68748 74.7754 10.8722 77.2209 11.3928V12.1949H71.4064C70.3461 12.1949 69.4824 13.0569 69.4824 14.1151C69.4824 15.1733 70.3461 16.0352 71.4064 16.0352H86.8834C87.9437 16.0352 88.8073 15.1733 88.8073 14.1151C88.8073 13.0569 87.9437 12.1949 86.8834 12.1949Z" fill="#1E78F0"/>
<path d="M83.874 28C82.7453 28 81.8389 27.0868 81.8389 25.9689V22.359C81.8389 21.608 81.2318 21.0021 80.4793 21.0021H74.9726C73.8439 21.0021 72.9375 20.089 72.9375 18.971C72.9375 17.8531 73.8524 16.9399 74.9726 16.9399H80.4793C83.4721 16.9399 85.9091 19.3721 85.9091 22.359V25.9689C85.9091 27.0954 84.9942 28 83.874 28Z" fill="#1E78F0"/>
<path d="M33.279 7.36472C33.4871 7.36472 33.6558 7.10491 33.6558 6.78441C33.6558 6.46392 33.4871 6.2041 33.279 6.2041C33.071 6.2041 32.9023 6.46392 32.9023 6.78441C32.9023 7.10491 33.071 7.36472 33.279 7.36472Z" fill="#1E78F0"/>
<path d="M32.0549 1.30565C27.2408 1.30565 23.3245 4.08773 23.3245 7.50986C23.3245 8.67048 23.7692 9.78843 24.6157 10.7698C24.6414 11.0685 24.6927 12.0499 24.1283 12.7241C23.7692 13.1594 23.2048 13.3898 22.4524 13.4068C22.2899 13.4068 22.1531 13.5434 22.1445 13.7055C22.1445 13.8677 22.2557 14.0128 22.4267 14.0298C22.9569 14.0981 23.4357 14.1237 23.8718 14.1237C25.4452 14.1237 26.4884 13.6799 27.7111 12.6217C28.9681 11.5208 29.0365 10.3943 28.9852 9.87377C30.0027 9.43854 31.0545 8.72168 31.5419 7.54399C31.6103 7.38185 31.5333 7.1941 31.3709 7.13436C31.2084 7.06609 31.0203 7.1429 30.9604 7.30504C30.8322 7.60373 30.6612 7.87682 30.4559 8.10724L29.6094 8.83263C29.0536 9.19959 28.4294 9.43854 27.8821 9.60068C27.7453 9.64335 27.6513 9.56655 27.6171 9.53241C27.5829 9.49828 27.5059 9.4044 27.5572 9.26786C27.6769 8.9009 27.771 8.46566 27.8565 7.96216C28.1985 5.84573 29.3358 4.66804 31.1314 4.5571C32.8245 4.45469 34.244 5.28249 34.6629 6.62232C34.6715 6.65646 34.6886 6.68206 34.7057 6.7162H34.7142C34.7655 6.80154 34.8425 6.84421 34.9366 6.86128L35.9114 6.98075C35.8772 7.35625 35.8943 8.01336 36.279 8.4742C36.5099 8.75582 36.8263 8.91797 37.2282 8.96917C36.8092 9.88231 35.7232 10.7784 33.0554 10.7357C32.6193 10.7357 32.2089 10.9149 31.9267 11.2392C31.6445 11.5635 31.5248 11.9817 31.5846 12.4084V12.4425C31.7044 13.1935 32.3884 13.7311 33.1409 13.6629C37.5018 13.2788 40.7853 10.6333 40.7853 7.50132C40.7853 4.0792 36.8691 1.29712 32.0549 1.29712V1.30565ZM36.7579 8.08164C36.5356 7.81708 36.5099 7.39892 36.527 7.09169C36.9118 7.1429 37.1683 7.27944 37.2966 7.48426C37.4591 7.74028 37.3992 8.11577 37.3222 8.35472C37.0743 8.32912 36.8862 8.23525 36.7579 8.08164Z" fill="#1E78F0"/>
<path d="M64.6349 27.9999H58.8716C56.2978 27.9999 54.2029 25.9091 54.2029 23.3403C54.2029 20.7716 56.2978 18.6808 58.8716 18.6808H62.9333C63.2582 18.6808 63.5233 18.4162 63.5233 18.0919C63.5233 17.7676 63.2582 17.5031 62.9333 17.5031H56.7767C55.648 17.5031 54.7416 16.59 54.7416 15.472C54.7416 14.3541 55.6565 13.4409 56.7767 13.4409H62.9333C65.5071 13.4409 67.602 15.5317 67.602 18.1005C67.602 20.6692 65.5071 22.76 62.9333 22.76H58.8716C58.5467 22.76 58.2816 23.0246 58.2816 23.3489C58.2816 23.6732 58.5467 23.9377 58.8716 23.9377H64.6349C65.7636 23.9377 66.67 24.8509 66.67 25.9688C66.67 27.0868 65.755 27.9999 64.6349 27.9999Z" fill="#1E78F0"/>
<path d="M9.79853 15.1818H6.34399C2.84671 15.1818 0.00783171 12.4595 0.00783171 9.11417V6.92947C-0.000719117 3.57561 2.84671 0.853271 6.33544 0.853271H9.78998C11.0384 0.853271 12.0559 1.86882 12.0559 3.11478C12.0559 4.36074 11.0384 5.37628 9.78998 5.37628H6.33544C5.335 5.37628 4.52267 6.07607 4.52267 6.92947V9.11417C4.52267 9.96757 5.335 10.6674 6.33544 10.6674H9.78998C11.0384 10.6674 12.0559 11.6829 12.0559 12.9289C12.0559 14.1748 11.0384 15.1904 9.78998 15.1904L9.79853 15.1818Z" fill="#1E78F0"/>
<path d="M44.5316 15.5062C43.2832 15.5062 42.2656 14.4906 42.2656 13.2447V2.78201C42.2656 1.53605 43.2832 0.520508 44.5316 0.520508C45.78 0.520508 46.7976 1.53605 46.7976 2.78201V13.2532C46.7976 14.4992 45.78 15.5147 44.5316 15.5147V15.5062Z" fill="#1E78F0"/>
<path d="M18.4102 5.76037H18.3503V2.78201C18.3503 1.53605 17.3327 0.520508 16.0843 0.520508C14.8359 0.520508 13.8184 1.53605 13.8184 2.78201V13.2532C13.8184 14.4992 14.8359 15.5147 16.0843 15.5147C17.3327 15.5147 18.3503 14.4992 18.3503 13.2532V10.2749H18.4102C19.6586 10.2749 20.6761 9.25931 20.6761 8.01335C20.6761 6.76738 19.6586 5.75184 18.4102 5.75184V5.76037Z" fill="#1E78F0"/>
<path d="M66.7394 0.452148C65.491 0.452148 64.4735 1.46769 64.4735 2.71365V4.12176H64.1742C62.9258 4.12176 61.9082 5.13731 61.9082 6.38327C61.9082 7.62923 62.9258 8.64477 64.1742 8.64477H64.4735V10.0529C64.4735 11.2988 65.491 12.3144 66.7394 12.3144C67.9878 12.3144 69.0054 11.2988 69.0054 10.0529V2.71365C69.0054 1.46769 67.9878 0.452148 66.7394 0.452148Z" fill="#1E78F0"/>
<path d="M54.8959 12.2377C51.6551 12.2377 49.0215 9.60919 49.0215 6.37481C49.0215 3.14043 51.6551 0.511963 54.8959 0.511963C58.1367 0.511963 60.7703 3.14043 60.7703 6.37481C60.7703 9.60919 58.1367 12.2377 54.8959 12.2377ZM54.8959 5.03497C54.152 5.03497 53.5534 5.64089 53.5534 6.37481C53.5534 7.10873 54.1605 7.71464 54.8959 7.71464C55.6313 7.71464 56.2384 7.10873 56.2384 6.37481C56.2384 5.64089 55.6313 5.03497 54.8959 5.03497Z" fill="#1E78F0"/>
<path d="M86.8834 12.1949H81.0688V11.5122H82.8132C83.9419 11.5122 84.8483 10.5991 84.8483 9.48114C84.8483 8.36319 83.9333 7.45005 82.8132 7.45005H78.3667C77.6143 7.45005 77.0071 6.84414 77.0071 6.09315V5.52137C77.0071 4.77038 77.6143 4.16447 78.3667 4.16447H82.8132C83.9419 4.16447 84.8483 3.25133 84.8483 2.13338C84.8483 1.01543 83.9333 0.102295 82.8132 0.102295H78.3667C75.3739 0.102295 72.937 2.53448 72.937 5.52137V6.09315C72.937 8.68748 74.7754 10.8722 77.2209 11.3928V12.1949H71.4064C70.3461 12.1949 69.4824 13.0569 69.4824 14.1151C69.4824 15.1733 70.3461 16.0352 71.4064 16.0352H86.8834C87.9437 16.0352 88.8073 15.1733 88.8073 14.1151C88.8073 13.0569 87.9437 12.1949 86.8834 12.1949Z" fill="#1E78F0"/>
<path d="M83.874 28C82.7453 28 81.8389 27.0868 81.8389 25.9689V22.359C81.8389 21.608 81.2318 21.0021 80.4793 21.0021H74.9726C73.8439 21.0021 72.9375 20.089 72.9375 18.971C72.9375 17.8531 73.8524 16.9399 74.9726 16.9399H80.4793C83.4721 16.9399 85.9091 19.3721 85.9091 22.359V25.9689C85.9091 27.0954 84.9942 28 83.874 28Z" fill="#1E78F0"/>
<path d="M33.279 7.36472C33.4871 7.36472 33.6558 7.10491 33.6558 6.78441C33.6558 6.46392 33.4871 6.2041 33.279 6.2041C33.071 6.2041 32.9023 6.46392 32.9023 6.78441C32.9023 7.10491 33.071 7.36472 33.279 7.36472Z" fill="#1E78F0"/>
<path d="M32.0549 1.30565C27.2408 1.30565 23.3245 4.08773 23.3245 7.50986C23.3245 8.67048 23.7692 9.78843 24.6157 10.7698C24.6414 11.0685 24.6927 12.0499 24.1283 12.7241C23.7692 13.1594 23.2048 13.3898 22.4524 13.4068C22.2899 13.4068 22.1531 13.5434 22.1445 13.7055C22.1445 13.8677 22.2557 14.0128 22.4267 14.0298C22.9569 14.0981 23.4357 14.1237 23.8718 14.1237C25.4452 14.1237 26.4884 13.6799 27.7111 12.6217C28.9681 11.5208 29.0365 10.3943 28.9852 9.87377C30.0027 9.43854 31.0545 8.72168 31.5419 7.54399C31.6103 7.38185 31.5333 7.1941 31.3709 7.13436C31.2084 7.06609 31.0203 7.1429 30.9604 7.30504C30.8322 7.60373 30.6612 7.87682 30.4559 8.10724L29.6094 8.83263C29.0536 9.19959 28.4294 9.43854 27.8821 9.60068C27.7453 9.64335 27.6513 9.56655 27.6171 9.53241C27.5829 9.49828 27.5059 9.4044 27.5572 9.26786C27.6769 8.9009 27.771 8.46566 27.8565 7.96216C28.1985 5.84573 29.3358 4.66804 31.1314 4.5571C32.8245 4.45469 34.244 5.28249 34.6629 6.62232C34.6715 6.65646 34.6886 6.68206 34.7057 6.7162H34.7142C34.7655 6.80154 34.8425 6.84421 34.9366 6.86128L35.9114 6.98075C35.8772 7.35625 35.8943 8.01336 36.279 8.4742C36.5099 8.75582 36.8263 8.91797 37.2282 8.96917C36.8092 9.88231 35.7232 10.7784 33.0554 10.7357C32.6193 10.7357 32.2089 10.9149 31.9267 11.2392C31.6445 11.5635 31.5248 11.9817 31.5846 12.4084V12.4425C31.7044 13.1935 32.3884 13.7311 33.1409 13.6629C37.5018 13.2788 40.7853 10.6333 40.7853 7.50132C40.7853 4.0792 36.8691 1.29712 32.0549 1.29712V1.30565ZM36.7579 8.08164C36.5356 7.81708 36.5099 7.39892 36.527 7.09169C36.9118 7.1429 37.1683 7.27944 37.2966 7.48426C37.4591 7.74028 37.3992 8.11577 37.3222 8.35472C37.0743 8.32912 36.8862 8.23525 36.7579 8.08164Z" fill="#1E78F0"/>
<path d="M110.341 15.6685C109.084 15.6685 108.066 14.6529 108.066 13.3984V2.50905C108.066 1.25456 109.084 0.239014 110.341 0.239014C111.598 0.239014 112.615 1.25456 112.615 2.50905V13.4069C112.615 14.6614 111.598 15.677 110.341 15.677V15.6685Z" fill="#1E78F0"/>
<path d="M103.159 0.247426C101.902 0.247426 100.884 1.26297 100.884 2.51747V5.53849H98.0451V2.51747C98.0451 1.26297 97.0276 0.247426 95.7706 0.247426C94.5136 0.247426 93.4961 1.26297 93.4961 2.51747V9.9847C93.4961 12.946 95.9074 15.3526 98.8746 15.3526H100.046C103.013 15.3526 105.425 12.946 105.425 9.9847V2.50893C105.425 1.25444 104.407 0.238892 103.15 0.238892L103.159 0.247426ZM100.055 10.821H98.8831C98.447 10.821 98.0964 10.4882 98.0537 10.07H100.884C100.841 10.4882 100.482 10.821 100.055 10.821Z" fill="#1E78F0"/>
<path d="M131.445 7.8854L128.016 5.6495L128.119 5.58122C129.273 4.83023 129.778 3.52454 129.401 2.27004C129 0.913136 127.683 0 126.135 0H118.892C117.824 0 116.96 0.861932 116.96 1.92868C116.96 2.99543 117.824 3.85736 118.892 3.85736H123.698L123.57 3.9427C123.467 3.9939 123.365 4.06218 123.27 4.13898L117.524 7.89393C116.635 8.47425 116.378 9.669 116.969 10.5651C117.336 11.1283 117.952 11.4355 118.585 11.4355C118.944 11.4355 119.311 11.3331 119.636 11.1198L124.476 7.95367L129.316 11.1198C129.641 11.3331 130.009 11.4355 130.368 11.4355C131 11.4355 131.616 11.1283 131.984 10.5651C132.565 9.67754 132.317 8.48278 131.428 7.89393L131.445 7.8854Z" fill="#1E78F0"/>
<path d="M110.341 15.6685C109.084 15.6685 108.066 14.6529 108.066 13.3984V2.50905C108.066 1.25456 109.084 0.239014 110.341 0.239014C111.598 0.239014 112.615 1.25456 112.615 2.50905V13.4069C112.615 14.6614 111.598 15.677 110.341 15.677V15.6685Z" fill="#1E78F0"/>
<path d="M103.159 0.247426C101.902 0.247426 100.884 1.26297 100.884 2.51747V5.53849H98.0451V2.51747C98.0451 1.26297 97.0276 0.247426 95.7706 0.247426C94.5136 0.247426 93.4961 1.26297 93.4961 2.51747V9.9847C93.4961 12.946 95.9074 15.3526 98.8746 15.3526H100.046C103.013 15.3526 105.425 12.946 105.425 9.9847V2.50893C105.425 1.25444 104.407 0.238892 103.15 0.238892L103.159 0.247426ZM100.055 10.821H98.8831C98.447 10.821 98.0964 10.4882 98.0537 10.07H100.884C100.841 10.4882 100.482 10.821 100.055 10.821Z" fill="#1E78F0"/>
<path d="M131.445 7.8854L128.016 5.6495L128.119 5.58122C129.273 4.83023 129.778 3.52454 129.401 2.27004C129 0.913136 127.683 0 126.135 0H118.892C117.824 0 116.96 0.861932 116.96 1.92868C116.96 2.99543 117.824 3.85736 118.892 3.85736H123.698L123.57 3.9427C123.467 3.9939 123.365 4.06218 123.27 4.13898L117.524 7.89393C116.635 8.47425 116.378 9.669 116.969 10.5651C117.336 11.1283 117.952 11.4355 118.585 11.4355C118.944 11.4355 119.311 11.3331 119.636 11.1198L124.476 7.95367L129.316 11.1198C129.641 11.3331 130.009 11.4355 130.368 11.4355C131 11.4355 131.616 11.1283 131.984 10.5651C132.565 9.67754 132.317 8.48278 131.428 7.89393L131.445 7.8854Z" fill="#1E78F0"/>
<path d="M132.068 16.4279H116.899C115.83 16.4279 114.967 15.566 114.967 14.4992C114.967 13.4325 115.83 12.5706 116.899 12.5706H132.068C133.137 12.5706 134.001 13.4325 134.001 14.4992C134.001 15.566 133.137 16.4279 132.068 16.4279Z" fill="#1E78F0"/>
<path d="M110.341 15.6685C109.084 15.6685 108.066 14.6529 108.066 13.3984V2.50905C108.066 1.25456 109.084 0.239014 110.341 0.239014C111.598 0.239014 112.615 1.25456 112.615 2.50905V13.4069C112.615 14.6614 111.598 15.677 110.341 15.677V15.6685Z" fill="#1E78F0"/>
<path d="M103.159 0.247426C101.902 0.247426 100.884 1.26297 100.884 2.51747V5.53849H98.0451V2.51747C98.0451 1.26297 97.0276 0.247426 95.7706 0.247426C94.5136 0.247426 93.4961 1.26297 93.4961 2.51747V9.9847C93.4961 12.946 95.9074 15.3526 98.8746 15.3526H100.046C103.013 15.3526 105.425 12.946 105.425 9.9847V2.50893C105.425 1.25444 104.407 0.238892 103.15 0.238892L103.159 0.247426ZM100.055 10.821H98.8831C98.447 10.821 98.0964 10.4882 98.0537 10.07H100.884C100.841 10.4882 100.482 10.821 100.055 10.821Z" fill="#1E78F0"/>
<path d="M131.445 7.8854L128.016 5.6495L128.119 5.58122C129.273 4.83023 129.778 3.52454 129.401 2.27004C129 0.913136 127.683 0 126.135 0H118.892C117.824 0 116.96 0.861932 116.96 1.92868C116.96 2.99543 117.824 3.85736 118.892 3.85736H123.698L123.57 3.9427C123.467 3.9939 123.365 4.06218 123.27 4.13898L117.524 7.89393C116.635 8.47425 116.378 9.669 116.969 10.5651C117.336 11.1283 117.952 11.4355 118.585 11.4355C118.944 11.4355 119.311 11.3331 119.636 11.1198L124.476 7.95367L129.316 11.1198C129.641 11.3331 130.009 11.4355 130.368 11.4355C131 11.4355 131.616 11.1283 131.984 10.5651C132.565 9.67754 132.317 8.48278 131.428 7.89393L131.445 7.8854Z" fill="#1E78F0"/>
</g>
<defs>
<clipPath id="clip0_90_4397">
<rect width="134" height="28" fill="white"/>
</clipPath>
</defs>
</svg>
