<svg width="24" height="24" viewBox="0 0 24 24" fill="none" xmlns="http://www.w3.org/2000/svg">
<g clip-path="url(#clip0_2479_22961)">
<path d="M18 10H21C21.5519 10 22 10.4481 22 11V20C22 20.5519 21.5519 21 21 21H18V10Z" fill="#1E78F0"/>
<path d="M3 10H6V21H3C2.44808 21 2 20.5519 2 20V11C2 10.4481 2.44808 10 3 10Z" fill="#1E78F0"/>
<path d="M20 3H4V5H20V3Z" fill="#1E78F0"/>
<path d="M7 5V21H9.75V16.25C9.75 15.0073 10.7574 14 12 14C13.2426 14 14.25 15.0073 14.25 16.25V21H17V5H7ZM13.5 10.25H10.5C10.0859 10.25 9.75 9.91406 9.75 9.5C9.75 9.08594 10.0859 8.75 10.5 8.75H13.5C13.9141 8.75 14.25 9.08594 14.25 9.5C14.25 9.91406 13.9141 10.25 13.5 10.25ZM13.5 7.75H10.5C10.0859 7.75 9.75 7.41406 9.75 7C9.75 6.58594 10.0859 6.25 10.5 6.25H13.5C13.9141 6.25 14.25 6.58594 14.25 7C14.25 7.41406 13.9141 7.75 13.5 7.75Z" fill="#1E78F0"/>
</g>
<defs>
<clipPath id="clip0_2479_22961">
<rect width="24" height="24" fill="white"/>
</clipPath>
</defs>
</svg>
