<svg width="24" height="24" viewBox="0 0 24 24" fill="none" xmlns="http://www.w3.org/2000/svg">
<g clip-path="url(#clip0_624_150)">
<path d="M12 6.68018C10.81 6.68018 9.85 7.64018 9.85 8.83018C9.85 10.0202 10.81 10.9802 12 10.9802C13.19 10.9802 14.15 10.0202 14.15 8.83018C14.15 7.64018 13.19 6.68018 12 6.68018ZM12 9.68018C11.53 9.68018 11.15 9.30018 11.15 8.83018C11.15 8.36018 11.53 7.98018 12 7.98018C12.47 7.98018 12.85 8.36018 12.85 8.83018C12.85 9.30018 12.47 9.68018 12 9.68018Z" fill="#333333"/>
<path d="M21.65 11.83C21.65 10.92 20.91 10.18 20 10.18H17.65V8.27996C17.65 7.79996 17.42 7.33996 17.03 7.02996L13.14 3.91996C12.48 3.38996 11.52 3.38996 10.85 3.91996L6.96 7.02996C6.57 7.33996 6.34 7.79996 6.34 8.27996V10.18H3.99C3.08 10.18 2.34 10.92 2.34 11.83V20.48H17.64H21.64V11.83H21.65ZM3.65 11.83C3.65 11.64 3.81 11.48 4 11.48H6.35V19.18H3.65V11.83ZM7.65 10.18V8.27996C7.65 8.18996 7.7 8.10996 7.78 8.03996L11.67 4.92996C11.85 4.77996 12.15 4.77996 12.33 4.92996L16.22 8.03996C16.3 8.10996 16.35 8.18996 16.35 8.27996V19.19H7.65V10.19V10.18ZM20.35 19.18H17.65V11.48H20C20.19 11.48 20.35 11.64 20.35 11.83V19.18Z" fill="#333333"/>
</g>
<defs>
<clipPath id="clip0_624_150">
<rect width="24" height="24" fill="white"/>
</clipPath>
</defs>
</svg>
