<svg width="24" height="24" viewBox="0 0 24 24" fill="none" xmlns="http://www.w3.org/2000/svg">
<g clip-path="url(#clip0_5_1069)">
<path d="M9 12.75C7.21 12.75 5.75 11.29 5.75 9.5C5.75 7.71 7.21 6.25 9 6.25C10.79 6.25 12.25 7.71 12.25 9.5C12.25 11.29 10.79 12.75 9 12.75ZM9 7.75C8.04 7.75 7.25 8.54 7.25 9.5C7.25 10.46 8.04 11.25 9 11.25C9.96 11.25 10.75 10.46 10.75 9.5C10.75 8.54 9.96 7.75 9 7.75Z" fill="#333333"/>
<path d="M9 20.75C5.28 20.75 2.25 17.72 2.25 14V13.25H15.75V14C15.75 17.72 12.72 20.75 9 20.75ZM3.8 14.75C4.16 17.29 6.36 19.25 9 19.25C11.64 19.25 13.83 17.29 14.2 14.75H3.8Z" fill="#333333"/>
<path d="M15 3.25C13.28 3.25 11.87 4.6 11.77 6.3C12.6 7.02 13.14 8.05 13.22 9.21C13.73 9.55 14.34 9.75 15 9.75C16.79 9.75 18.25 8.29 18.25 6.5C18.25 4.71 16.79 3.25 15 3.25ZM15 8.25C14.04 8.25 13.25 7.46 13.25 6.5C13.25 5.54 14.04 4.75 15 4.75C15.96 4.75 16.75 5.54 16.75 6.5C16.75 7.46 15.96 8.25 15 8.25Z" fill="#333333"/>
<path d="M13.1701 10.25C13.0701 10.79 12.8701 11.3 12.5901 11.75H20.2001C19.9101 13.8 18.4201 15.44 16.4801 16.02C16.3201 16.61 16.1001 17.17 15.8201 17.7C19.1601 17.3 21.7601 14.45 21.7601 11V10.25H13.1701Z" fill="#333333"/>
</g>
<defs>
<clipPath id="clip0_5_1069">
<rect width="24" height="24" fill="white"/>
</clipPath>
</defs>
</svg>
