<svg width="24" height="24" viewBox="0 0 24 24" fill="none" xmlns="http://www.w3.org/2000/svg">
<g clip-path="url(#clip0_5_1587)">
<path d="M22 10.6098C22.41 10.6098 22.75 10.2698 22.75 9.85984V6.65984C22.75 5.65984 21.93 4.83984 20.93 4.83984H3.07C2.07 4.83984 1.25 5.65984 1.25 6.65984V9.85984C1.25 10.2698 1.59 10.6098 2 10.6098C2.76 10.6098 3.39 11.2298 3.39 11.9998C3.39 12.7698 2.77 13.3898 2 13.3898C1.59 13.3898 1.25 13.7298 1.25 14.1398V17.3398C1.25 18.3398 2.07 19.1598 3.07 19.1598H20.93C21.93 19.1598 22.75 18.3398 22.75 17.3398V14.1398C22.75 13.7298 22.41 13.3898 22 13.3898C21.24 13.3898 20.61 12.7698 20.61 11.9998C20.61 11.2298 21.23 10.6098 22 10.6098ZM2.75 17.3398V14.7898C3.98 14.4598 4.89 13.3298 4.89 11.9998C4.89 10.6698 3.98 9.53984 2.75 9.20984V6.65984C2.75 6.48984 2.89 6.33984 3.07 6.33984H6.04V17.6498H3.07C2.9 17.6498 2.75 17.5098 2.75 17.3298V17.3398ZM21.25 14.7898V17.3398C21.25 17.5098 21.11 17.6598 20.93 17.6598H7.54V6.33984H20.94C21.11 6.33984 21.26 6.47984 21.26 6.65984V9.20984C20.03 9.53984 19.12 10.6698 19.12 11.9998C19.12 13.3298 20.03 14.4598 21.26 14.7898H21.25Z" fill="#333333"/>
<path d="M15 10.25H10V11.75H15V10.25Z" fill="#333333"/>
<path d="M17 12.25H10V13.75H17V12.25Z" fill="#333333"/>
</g>
<defs>
<clipPath id="clip0_5_1587">
<rect width="24" height="24" fill="white"/>
</clipPath>
</defs>
</svg>
