<svg width="24" height="24" viewBox="0 0 24 24" fill="none" xmlns="http://www.w3.org/2000/svg">
<g clip-path="url(#clip0_339_17388)">
<path d="M12 14.25C13.2426 14.25 14.25 13.2426 14.25 12C14.25 10.7574 13.2426 9.75 12 9.75C10.7574 9.75 9.75 10.7574 9.75 12C9.75 13.2426 10.7574 14.25 12 14.25Z" fill="#919191"/>
<path d="M21.1205 9.76L19.3205 9.46C19.2205 9.17 19.1005 8.89 18.9705 8.62L20.0305 7.14C20.2405 6.84 20.2105 6.43 19.9505 6.17L17.8305 4.05C17.5705 3.79 17.1605 3.76 16.8605 3.97L15.3705 5.03C15.1005 4.9 14.8105 4.78 14.5205 4.68L14.2205 2.88C14.1605 2.52 13.8505 2.25 13.4805 2.25H10.4805C10.1105 2.25 9.80047 2.51 9.74047 2.88L9.44047 4.68C9.15047 4.78 8.87047 4.9 8.60047 5.03L7.12047 3.97C6.82047 3.75 6.41047 3.79 6.15047 4.05L4.03047 6.17C3.77047 6.43 3.74047 6.84 3.95047 7.14L5.01047 8.63C4.88047 8.9 4.76047 9.19 4.66047 9.48L2.86047 9.78C2.50047 9.84 2.23047 10.15 2.23047 10.52V13.52C2.23047 13.89 2.49047 14.2 2.86047 14.26L4.66047 14.56C4.76047 14.85 4.88047 15.13 5.01047 15.4L3.95047 16.88C3.74047 17.18 3.77047 17.59 4.03047 17.85L6.15047 19.97C6.41047 20.23 6.82047 20.26 7.12047 20.05L8.61047 18.99C8.88047 19.12 9.17047 19.24 9.46047 19.34L9.76047 21.14C9.82047 21.5 10.1305 21.77 10.5005 21.77H13.5005C13.8705 21.77 14.1805 21.51 14.2405 21.14L14.5405 19.34C14.8305 19.24 15.1105 19.12 15.3805 18.99L16.8605 20.05C17.1605 20.26 17.5705 20.23 17.8305 19.97L19.9505 17.85C20.2105 17.59 20.2405 17.18 20.0305 16.88L18.9705 15.39C19.1005 15.12 19.2205 14.83 19.3205 14.54L21.1205 14.24C21.4805 14.18 21.7505 13.87 21.7505 13.5V10.5C21.7505 10.13 21.4905 9.82 21.1205 9.76ZM12.0005 15.75C9.93047 15.75 8.25047 14.07 8.25047 12C8.25047 9.93 9.93047 8.25 12.0005 8.25C14.0705 8.25 15.7505 9.93 15.7505 12C15.7505 14.07 14.0705 15.75 12.0005 15.75Z" fill="#919191"/>
</g>
<defs>
<clipPath id="clip0_339_17388">
<rect width="24" height="24" fill="white"/>
</clipPath>
</defs>
</svg>
