<svg width="24" height="24" viewBox="0 0 24 24" fill="none" xmlns="http://www.w3.org/2000/svg">
<g clip-path="url(#clip0_488_29509)">
<path d="M7.98535 20.9707H4.5C3.25928 20.9707 2.25 19.9609 2.25 18.7207V11.5C2.25 10.2598 3.25928 9.25 4.5 9.25H7.98535V20.9707ZM4.5 10.75C4.08643 10.75 3.75 11.0869 3.75 11.5V18.7207C3.75 19.1338 4.08643 19.4707 4.5 19.4707H6.48535V10.75H4.5Z" fill="#333333"/>
<path d="M19.5 20.9707H16.0146V9.25H19.5C20.7407 9.25 21.75 10.2598 21.75 11.5V18.7207C21.75 19.9609 20.7407 20.9707 19.5 20.9707ZM17.5146 19.4707H19.5C19.9136 19.4707 20.25 19.1338 20.25 18.7207V11.5C20.25 11.0869 19.9136 10.75 19.5 10.75H17.5146V19.4707Z" fill="#333333"/>
<path d="M20 3.25H4V4.75H20V3.25Z" fill="#333333"/>
<path d="M17.5147 20.9707H13.25V16.7061C13.25 15.9932 12.6895 15.4131 12 15.4131C11.3106 15.4131 10.75 15.9932 10.75 16.7061V20.9707H6.48535V3.25H17.5147V20.9707ZM14.75 19.4707H16.0147V4.75H7.98535V19.4707H9.25V16.7061C9.25 15.166 10.4834 13.9131 12 13.9131C13.5166 13.9131 14.75 15.166 14.75 16.7061V19.4707Z" fill="#333333"/>
<path d="M13.5 7.75H10.5C10.0859 7.75 9.75 7.41406 9.75 7C9.75 6.58594 10.0859 6.25 10.5 6.25H13.5C13.9141 6.25 14.25 6.58594 14.25 7C14.25 7.41406 13.9141 7.75 13.5 7.75Z" fill="#333333"/>
<path d="M13.5 10.25H10.5C10.0859 10.25 9.75 9.91406 9.75 9.5C9.75 9.08594 10.0859 8.75 10.5 8.75H13.5C13.9141 8.75 14.25 9.08594 14.25 9.5C14.25 9.91406 13.9141 10.25 13.5 10.25Z" fill="#333333"/>
</g>
<defs>
<clipPath id="clip0_488_29509">
<rect width="24" height="24" fill="white"/>
</clipPath>
</defs>
</svg>
