<svg width="24" height="24" viewBox="0 0 24 24" fill="none" xmlns="http://www.w3.org/2000/svg">
<g clip-path="url(#clip0_338_188027)">
<path d="M16.63 7.53004L12.74 4.42004C12.32 4.08004 11.68 4.08004 11.26 4.42004L7.37 7.53004C7.13 7.72004 7 7.99004 7 8.28004V19.83H17V10.83V8.28004C17 7.99004 16.86 7.72004 16.63 7.53004ZM12 10.33C11.17 10.33 10.5 9.66004 10.5 8.83004C10.5 8.00004 11.17 7.33004 12 7.33004C12.83 7.33004 13.5 8.00004 13.5 8.83004C13.5 9.66004 12.83 10.33 12 10.33Z" fill="#1E78F0"/>
<path d="M18 10.8301H21C21.55 10.8301 22 11.2801 22 11.8301V19.8301H18V10.8301Z" fill="#1E78F0"/>
<path d="M3 10.8301H6V19.8301H2V11.8301C2 11.2801 2.45 10.8301 3 10.8301Z" fill="#1E78F0"/>
</g>
<defs>
<clipPath id="clip0_338_188027">
<rect width="24" height="24" fill="white"/>
</clipPath>
</defs>
</svg>
