<svg width="20" height="20" viewBox="0 0 20 20" fill="none" xmlns="http://www.w3.org/2000/svg">
<g clip-path="url(#clip0_2892_18310)">
<path d="M17.9173 17.3024L14.6106 13.9957C15.5929 12.78 16.1862 11.2336 16.1862 9.55108C16.1862 5.66083 13.0253 2.5 9.13507 2.5C5.24482 2.5 2.08398 5.66083 2.08398 9.55108C2.08398 13.4413 5.24482 16.6022 9.13507 16.6022C10.8176 16.6022 12.364 16.0089 13.5797 15.0266L16.8864 18.3333L17.9173 17.3024ZM3.54283 9.55108C3.54283 6.46806 6.05204 3.95885 9.13507 3.95885C12.2181 3.95885 14.7273 6.46806 14.7273 9.55108C14.7273 12.6341 12.2181 15.1433 9.13507 15.1433C6.05204 15.1433 3.54283 12.6341 3.54283 9.55108Z" fill="#C4C4C4"/>
</g>
<defs>
<clipPath id="clip0_2892_18310">
<rect width="20" height="20" fill="white"/>
</clipPath>
</defs>
</svg>
